<svg width="42" height="42" viewBox="0 0 42 42" fill="none" xmlns="http://www.w3.org/2000/svg">
<path id="Vector" d="M21 31.5C21.595 31.5 22.0941 31.2984 22.4973 30.8952C22.8991 30.4934 23.1 29.995 23.1 29.4V23.1H29.4525C30.0475 23.1 30.5375 22.8984 30.9225 22.4952C31.3075 22.0934 31.5 21.595 31.5 21C31.5 20.405 31.2984 19.9059 30.8952 19.5027C30.4934 19.1009 29.995 18.9 29.4 18.9H23.1V12.5475C23.1 11.9525 22.8991 11.4625 22.4973 11.0775C22.0941 10.6925 21.595 10.5 21 10.5C20.405 10.5 19.9066 10.7009 19.5048 11.1027C19.1016 11.5059 18.9 12.005 18.9 12.6V18.9H12.5475C11.9525 18.9 11.4625 19.1009 11.0775 19.5027C10.6925 19.9059 10.5 20.405 10.5 21C10.5 21.595 10.7009 22.0934 11.1027 22.4952C11.5059 22.8984 12.005 23.1 12.6 23.1H18.9V29.4525C18.9 30.0475 19.1016 30.5375 19.5048 30.9225C19.9066 31.3075 20.405 31.5 21 31.5ZM21 42C18.095 42 15.365 41.4484 12.81 40.3452C10.255 39.2434 8.0325 37.7475 6.1425 35.8575C4.2525 33.9675 2.7566 31.745 1.6548 29.19C0.5516 26.635 0 23.905 0 21C0 18.095 0.5516 15.365 1.6548 12.81C2.7566 10.255 4.2525 8.0325 6.1425 6.1425C8.0325 4.2525 10.255 2.7559 12.81 1.6527C15.365 0.5509 18.095 0 21 0C23.905 0 26.635 0.5509 29.19 1.6527C31.745 2.7559 33.9675 4.2525 35.8575 6.1425C37.7475 8.0325 39.2434 10.255 40.3452 12.81C41.4484 15.365 42 18.095 42 21C42 23.905 41.4484 26.635 40.3452 29.19C39.2434 31.745 37.7475 33.9675 35.8575 35.8575C33.9675 37.7475 31.745 39.2434 29.19 40.3452C26.635 41.4484 23.905 42 21 42Z" fill="#181F4C"/>
</svg>
