<svg width="29" height="29" viewBox="0 0 29 29" fill="none" xmlns="http://www.w3.org/2000/svg">
<path d="M19.334 13.292C21.3398 13.292 22.9469 11.6728 22.9469 9.66699C22.9469 7.66116 21.3398 6.04199 19.334 6.04199C17.3281 6.04199 15.709 7.66116 15.709 9.66699C15.709 11.6728 17.3281 13.292 19.334 13.292ZM9.66732 13.292C11.6732 13.292 13.2802 11.6728 13.2802 9.66699C13.2802 7.66116 11.6732 6.04199 9.66732 6.04199C7.66148 6.04199 6.04232 7.66116 6.04232 9.66699C6.04232 11.6728 7.66148 13.292 9.66732 13.292ZM9.66732 15.7087C6.8519 15.7087 1.20898 17.1224 1.20898 19.9378V21.7503C1.20898 22.4149 1.75273 22.9587 2.41732 22.9587H16.9173C17.5819 22.9587 18.1257 22.4149 18.1257 21.7503V19.9378C18.1257 17.1224 12.4827 15.7087 9.66732 15.7087ZM19.334 15.7087C18.9836 15.7087 18.5848 15.7328 18.1619 15.7691C18.1861 15.7812 18.1981 15.8053 18.2102 15.8174C19.5877 16.8203 20.5423 18.1616 20.5423 19.9378V21.7503C20.5423 22.1732 20.4577 22.5841 20.3248 22.9587H26.584C27.2486 22.9587 27.7923 22.4149 27.7923 21.7503V19.9378C27.7923 17.1224 22.1494 15.7087 19.334 15.7087Z" fill="white"/>
</svg>
