<svg width="23" height="23" viewBox="0 0 23 23" fill="none" xmlns="http://www.w3.org/2000/svg">
<path d="M4.55208 0.625C3.51056 0.625 2.51169 1.03874 1.77522 1.77522C1.03874 2.51169 0.625 3.51056 0.625 4.55208V10.2917H13.9167V0.625H4.55208ZM0.625 18.4479V12.1042H13.9167V22.375H4.55208C3.51056 22.375 2.51169 21.9613 1.77522 21.2248C1.03874 20.4883 0.625 19.4894 0.625 18.4479ZM15.7292 16.3333V22.375H18.4479C19.4894 22.375 20.4883 21.9613 21.2248 21.2248C21.9613 20.4883 22.375 19.4894 22.375 18.4479V16.3333H15.7292ZM22.375 14.5208V8.47917H15.7292V14.5208H22.375ZM22.375 6.66667H15.7292V0.625H18.4479C19.4894 0.625 20.4883 1.03874 21.2248 1.77522C21.9613 2.51169 22.375 3.51056 22.375 4.55208V6.66667Z" fill="white"/>
</svg>
