<svg width="30" height="30" viewBox="0 0 30 30" fill="none" xmlns="http://www.w3.org/2000/svg">
<g id="material-symbols:download-for-offline-rounded">
<path id="Vector" d="M13.75 12.6875L12.625 11.5938C12.375 11.3646 12.0779 11.255 11.7338 11.265C11.3904 11.2758 11.1042 11.3958 10.875 11.625C10.6458 11.8542 10.5313 12.1458 10.5313 12.5C10.5313 12.8542 10.6458 13.1458 10.875 13.375L14.125 16.625C14.3542 16.8542 14.6458 16.9688 15 16.9688C15.3542 16.9688 15.6458 16.8542 15.875 16.625L19.1563 13.3438C19.3854 13.1146 19.495 12.8279 19.485 12.4838C19.4742 12.1404 19.3542 11.8542 19.125 11.625C18.8958 11.3958 18.6042 11.2758 18.25 11.265C17.8958 11.255 17.6042 11.375 17.375 11.625L16.25 12.6875V8.71875C16.25 8.36458 16.1304 8.07292 15.8913 7.84375C15.6513 7.61458 15.3542 7.5 15 7.5C14.6458 7.5 14.3492 7.61958 14.11 7.85875C13.87 8.09875 13.75 8.39583 13.75 8.75V12.6875ZM10 21.25H20.0313C20.3854 21.25 20.6771 21.13 20.9063 20.89C21.1354 20.6508 21.25 20.3542 21.25 20C21.25 19.6458 21.13 19.3488 20.89 19.1088C20.6508 18.8696 20.3542 18.75 20 18.75H9.96875C9.61458 18.75 9.32292 18.8696 9.09375 19.1088C8.86458 19.3488 8.75 19.6458 8.75 20C8.75 20.3542 8.86958 20.6508 9.10875 20.89C9.34875 21.13 9.64583 21.25 10 21.25ZM15 27.5C13.2708 27.5 11.6458 27.1717 10.125 26.515C8.60417 25.8592 7.28125 24.9688 6.15625 23.8438C5.03125 22.7188 4.14083 21.3958 3.485 19.875C2.82833 18.3542 2.5 16.7292 2.5 15C2.5 13.2708 2.82833 11.6458 3.485 10.125C4.14083 8.60417 5.03125 7.28125 6.15625 6.15625C7.28125 5.03125 8.60417 4.14042 10.125 3.48375C11.6458 2.82792 13.2708 2.5 15 2.5C16.7292 2.5 18.3542 2.82792 19.875 3.48375C21.3958 4.14042 22.7188 5.03125 23.8438 6.15625C24.9688 7.28125 25.8592 8.60417 26.515 10.125C27.1717 11.6458 27.5 13.2708 27.5 15C27.5 16.7292 27.1717 18.3542 26.515 19.875C25.8592 21.3958 24.9688 22.7188 23.8438 23.8438C22.7188 24.9688 21.3958 25.8592 19.875 26.515C18.3542 27.1717 16.7292 27.5 15 27.5Z" fill="#666666"/>
</g>
</svg>
