<svg width="41" height="40" viewBox="0 0 41 40" fill="none" xmlns="http://www.w3.org/2000/svg">
<g clip-path="url(#clip0_0_3229)" filter="url(#filter0_d_0_3229)">
<g filter="url(#filter1_d_0_3229)">
<path d="M36.0512 15.8605C36.0512 7.10106 28.9501 0 20.1906 0C11.4311 0 4.33008 7.10094 4.33008 15.8605C4.33008 23.7769 10.1301 30.3386 17.7124 31.5284V20.4452H13.6853V15.8605H17.7124V12.3663C17.7124 8.39122 20.0803 6.19552 23.7031 6.19552C25.4385 6.19552 27.2535 6.5053 27.2535 6.5053V10.4085H25.2536C23.2832 10.4085 22.6688 11.6311 22.6688 12.8854V15.8605H27.0676L26.3645 20.4452H22.6688V31.5284C30.2512 30.3386 36.0512 23.7771 36.0512 15.8605Z" fill="white"/>
</g>
</g>
<defs>
<filter id="filter0_d_0_3229" x="0.330078" y="0" width="39.7212" height="39.7212" filterUnits="userSpaceOnUse" color-interpolation-filters="sRGB">
<feFlood flood-opacity="0" result="BackgroundImageFix"/>
<feColorMatrix in="SourceAlpha" type="matrix" values="0 0 0 0 0 0 0 0 0 0 0 0 0 0 0 0 0 0 127 0" result="hardAlpha"/>
<feOffset dy="4"/>
<feGaussianBlur stdDeviation="2"/>
<feComposite in2="hardAlpha" operator="out"/>
<feColorMatrix type="matrix" values="0 0 0 0 0 0 0 0 0 0 0 0 0 0 0 0 0 0 0.25 0"/>
<feBlend mode="normal" in2="BackgroundImageFix" result="effect1_dropShadow_0_3229"/>
<feBlend mode="normal" in="SourceGraphic" in2="effect1_dropShadow_0_3229" result="shape"/>
</filter>
<filter id="filter1_d_0_3229" x="0.330078" y="0" width="39.7212" height="39.5283" filterUnits="userSpaceOnUse" color-interpolation-filters="sRGB">
<feFlood flood-opacity="0" result="BackgroundImageFix"/>
<feColorMatrix in="SourceAlpha" type="matrix" values="0 0 0 0 0 0 0 0 0 0 0 0 0 0 0 0 0 0 127 0" result="hardAlpha"/>
<feOffset dy="4"/>
<feGaussianBlur stdDeviation="2"/>
<feComposite in2="hardAlpha" operator="out"/>
<feColorMatrix type="matrix" values="0 0 0 0 0 0 0 0 0 0 0 0 0 0 0 0 0 0 0.25 0"/>
<feBlend mode="normal" in2="BackgroundImageFix" result="effect1_dropShadow_0_3229"/>
<feBlend mode="normal" in="SourceGraphic" in2="effect1_dropShadow_0_3229" result="shape"/>
</filter>
<clipPath id="clip0_0_3229">
<rect width="31.7211" height="31.7211" fill="white" transform="translate(4.33008)"/>
</clipPath>
</defs>
</svg>
