<svg width="26" height="26" viewBox="0 0 26 26" fill="none" xmlns="http://www.w3.org/2000/svg">
<path d="M13.0001 2.16666C10.165 2.1742 7.44547 3.29095 5.42325 5.27799V3.24999C5.42325 2.96267 5.30911 2.68712 5.10595 2.48396C4.90278 2.28079 4.62723 2.16666 4.33991 2.16666C4.0526 2.16666 3.77705 2.28079 3.57388 2.48396C3.37072 2.68712 3.25658 2.96267 3.25658 3.24999V8.12499C3.25658 8.41231 3.37072 8.68786 3.57388 8.89102C3.77705 9.09419 4.0526 9.20832 4.33991 9.20832H9.21491C9.50223 9.20832 9.77778 9.09419 9.98095 8.89102C10.1841 8.68786 10.2982 8.41231 10.2982 8.12499C10.2982 7.83767 10.1841 7.56212 9.98095 7.35896C9.77778 7.15579 9.50223 7.04166 9.21491 7.04166H6.73625C8.12613 5.59108 9.97782 4.66985 11.9732 4.43625C13.9685 4.20265 15.9829 4.67127 17.6702 5.76158C19.3576 6.8519 20.6125 8.49584 21.2195 10.4109C21.8264 12.326 21.7474 14.3927 20.996 16.2559C20.2446 18.1191 18.8678 19.6624 17.1021 20.6207C15.3365 21.579 13.2922 21.8924 11.3205 21.5071C9.34881 21.1219 7.57287 20.062 6.2978 18.5095C5.02274 16.957 4.32816 15.0089 4.33341 13C4.33341 12.7127 4.21928 12.4371 4.01611 12.234C3.81295 12.0308 3.5374 11.9167 3.25008 11.9167C2.96276 11.9167 2.68721 12.0308 2.48405 12.234C2.28088 12.4371 2.16675 12.7127 2.16675 13C2.16675 15.1426 2.80211 17.2371 3.99249 19.0187C5.18288 20.8002 6.87481 22.1887 8.85434 23.0087C10.8339 23.8286 13.0121 24.0432 15.1136 23.6252C17.215 23.2072 19.1453 22.1754 20.6604 20.6603C22.1755 19.1452 23.2073 17.2149 23.6253 15.1135C24.0433 13.012 23.8287 10.8338 23.0088 8.85425C22.1888 6.87472 20.8003 5.18278 19.0188 3.9924C17.2372 2.80202 15.1427 2.16666 13.0001 2.16666Z" fill="black"/>
<path d="M15.1667 14.0833H13.0001C12.7128 14.0833 12.4372 13.9692 12.234 13.766C12.0309 13.5629 11.9167 13.2873 11.9167 13V9.74999C11.9167 9.46267 12.0309 9.18712 12.234 8.98396C12.4372 8.78079 12.7128 8.66666 13.0001 8.66666C13.2874 8.66666 13.5629 8.78079 13.7661 8.98396C13.9693 9.18712 14.0834 9.46267 14.0834 9.74999V11.9167H15.1667C15.4541 11.9167 15.7296 12.0308 15.9328 12.234C16.1359 12.4371 16.2501 12.7127 16.2501 13C16.2501 13.2873 16.1359 13.5629 15.9328 13.766C15.7296 13.9692 15.4541 14.0833 15.1667 14.0833Z" fill="black"/>
<path opacity="0.5" d="M13.0001 4.33334C11.8271 4.33788 10.6673 4.58023 9.59068 5.04573C8.51405 5.51124 7.54301 6.19024 6.73625 7.04168H9.21491C9.50223 7.04168 9.77778 7.15581 9.98095 7.35898C10.1841 7.56214 10.2982 7.83769 10.2982 8.12501C10.2982 8.41233 10.1841 8.68788 9.98095 8.89104C9.77778 9.09421 9.50223 9.20834 9.21491 9.20834H4.33991C4.07569 9.20652 3.82144 9.10722 3.62592 8.92949C3.4304 8.75176 3.30737 8.50811 3.28041 8.24526C2.54931 9.72374 2.16825 11.3506 2.16675 13C2.16675 12.7127 2.28088 12.4371 2.48405 12.234C2.68721 12.0308 2.96276 11.9167 3.25008 11.9167C3.5374 11.9167 3.81295 12.0308 4.01611 12.234C4.21928 12.4371 4.33341 12.7127 4.33341 13C4.33341 14.7141 4.84171 16.3897 5.79401 17.8149C6.74632 19.2402 8.09987 20.351 9.68349 21.007C11.2671 21.6629 13.0097 21.8346 14.6909 21.5001C16.372 21.1657 17.9163 20.3403 19.1283 19.1283C20.3404 17.9162 21.1658 16.372 21.5002 14.6908C21.8346 13.0096 21.663 11.267 21.007 9.68342C20.3511 8.09979 19.2402 6.74625 17.815 5.79394C16.3898 4.84163 14.7142 4.33334 13.0001 4.33334ZM15.1667 14.0833H13.0001C12.7128 14.0833 12.4372 13.9692 12.234 13.766C12.0309 13.5629 11.9167 13.2873 11.9167 13V9.75001C11.9167 9.46269 12.0309 9.18714 12.234 8.98398C12.4372 8.78081 12.7128 8.66668 13.0001 8.66668C13.2874 8.66668 13.5629 8.78081 13.7661 8.98398C13.9693 9.18714 14.0834 9.46269 14.0834 9.75001V11.9167H15.1667C15.4541 11.9167 15.7296 12.0308 15.9328 12.234C16.1359 12.4371 16.2501 12.7127 16.2501 13C16.2501 13.2873 16.1359 13.5629 15.9328 13.766C15.7296 13.9692 15.4541 14.0833 15.1667 14.0833Z" fill="#999999"/>
</svg>
