<svg width="36" height="36" viewBox="0 0 36 36" fill="none" xmlns="http://www.w3.org/2000/svg">
<g clip-path="url(#clip0_0_3247)">
<path d="M32 8H4C3.46957 8 2.96086 8.21071 2.58579 8.58579C2.21071 8.96086 2 9.46957 2 10V26C2 26.5304 2.21071 27.0391 2.58579 27.4142C2.96086 27.7893 3.46957 28 4 28H32C32.5304 28 33.0391 27.7893 33.4142 27.4142C33.7893 27.0391 34 26.5304 34 26V10C34 9.46957 33.7893 8.96086 33.4142 8.58579C33.0391 8.21071 32.5304 8 32 8ZM4 26V21.15C5.25008 21.242 6.42439 21.7842 7.30519 22.6761C8.18599 23.5679 8.71353 24.7489 8.79 26H4ZM4 14.85V10H8.79C8.71353 11.2511 8.18599 12.4321 7.30519 13.3239C6.42439 14.2158 5.25008 14.758 4 14.85ZM18 25.15C14.53 25.15 11.7 21.94 11.7 18C11.7 14.06 14.53 10.85 18 10.85C21.47 10.85 24.3 14.06 24.3 18C24.3 21.94 21.47 25.15 18 25.15ZM32 26H27.25C27.3253 24.7552 27.8472 23.5794 28.7198 22.6884C29.5924 21.7975 30.7571 21.2512 32 21.15V26ZM32 14.85C30.7571 14.7488 29.5924 14.2025 28.7198 13.3116C27.8472 12.4206 27.3253 11.2448 27.25 10H32V14.85Z" fill="#00833E"/>
<path d="M18 22.7203C20.2091 22.7203 22 20.6071 22 18.0003C22 15.3935 20.2091 13.2803 18 13.2803C15.7909 13.2803 14 15.3935 14 18.0003C14 20.6071 15.7909 22.7203 18 22.7203Z" fill="#00833E"/>
</g>
<defs>
<clipPath id="clip0_0_3247">
<rect width="36" height="36" fill="white"/>
</clipPath>
</defs>
</svg>
