<svg width="32" height="32" viewBox="0 0 32 32" fill="none" xmlns="http://www.w3.org/2000/svg">
<g id="bi:instagram" clip-path="url(#clip0_0_3227)">
<g id="Vector" filter="url(#filter0_d_0_3227)">
<path d="M15.9113 0C11.6072 0 11.0659 0.0198257 9.3748 0.0951632C7.68367 0.174466 6.53179 0.44013 5.52267 0.832678C4.46416 1.23082 3.50539 1.85534 2.71337 2.66259C1.90662 3.45501 1.28217 4.41367 0.88346 5.47189C0.490911 6.47903 0.223265 7.63288 0.145944 9.31807C0.0706069 11.0132 0.0507812 11.5524 0.0507812 15.8625C0.0507812 20.1687 0.0706069 20.7079 0.145944 22.399C0.225247 24.0882 0.490911 25.2401 0.88346 26.2492C1.28989 27.292 1.83113 28.1762 2.71337 29.0585C3.59363 29.9407 4.47785 30.484 5.52068 30.8884C6.53179 31.2809 7.68168 31.5486 9.37083 31.6259C11.0639 31.7013 11.6032 31.7211 15.9113 31.7211C20.2194 31.7211 20.7567 31.7013 22.4498 31.6259C24.137 31.5466 25.2928 31.2809 26.302 30.8884C27.3598 30.4901 28.3179 29.8655 29.1093 29.0585C29.9915 28.1762 30.5328 27.292 30.9392 26.2492C31.3297 25.2401 31.5974 24.0882 31.6767 22.399C31.752 20.7079 31.7719 20.1687 31.7719 15.8605C31.7719 11.5524 31.752 11.0132 31.6767 9.32005C31.5974 7.63288 31.3297 6.47903 30.9392 5.47189C30.5405 4.41364 29.9161 3.45497 29.1093 2.66259C28.3175 1.85504 27.3587 1.23047 26.3 0.832678C25.2889 0.44013 24.135 0.172483 22.4478 0.0951632C20.7547 0.0198257 20.2175 0 15.9074 0H15.9133H15.9113ZM14.4898 2.85886H15.9133C20.1481 2.85886 20.6497 2.87274 22.321 2.95006C23.8674 3.01945 24.708 3.27917 25.2671 3.49527C26.0066 3.78274 26.5359 4.12771 27.091 4.68282C27.6461 5.23794 27.9891 5.76531 28.2766 6.50679C28.4947 7.06389 28.7524 7.9045 28.8218 9.4509C28.8991 11.1222 28.915 11.6238 28.915 15.8566C28.915 20.0894 28.8991 20.5929 28.8218 22.2642C28.7524 23.8106 28.4927 24.6493 28.2766 25.2083C28.0223 25.897 27.6165 26.5197 27.089 27.0303C26.5339 27.5854 26.0066 27.9284 25.2651 28.2159C24.71 28.434 23.8693 28.6917 22.321 28.7631C20.6497 28.8384 20.1481 28.8563 15.9133 28.8563C11.6785 28.8563 11.175 28.8384 9.50366 28.7631C7.95726 28.6917 7.11863 28.434 6.55955 28.2159C5.87061 27.962 5.24734 27.5569 4.73559 27.0303C4.20773 26.5189 3.80125 25.8956 3.54605 25.2064C3.32995 24.6493 3.07023 23.8087 3.00084 22.2622C2.9255 20.5909 2.90964 20.0894 2.90964 15.8526C2.90964 11.6178 2.9255 11.1182 3.00084 9.44693C3.07221 7.90053 3.32995 7.05992 3.54803 6.50084C3.8355 5.76134 4.18047 5.232 4.73559 4.67688C5.29071 4.12176 5.81807 3.77877 6.55955 3.4913C7.11863 3.27322 7.95726 3.01549 9.50366 2.94411C10.9668 2.87671 11.5338 2.85688 14.4898 2.8549V2.85886ZM24.3789 5.49171C24.1289 5.49171 23.8814 5.54094 23.6505 5.63659C23.4196 5.73224 23.2098 5.87243 23.0331 6.04917C22.8563 6.2259 22.7161 6.43571 22.6205 6.66663C22.5248 6.89754 22.4756 7.14504 22.4756 7.39498C22.4756 7.64492 22.5248 7.89241 22.6205 8.12332C22.7161 8.35424 22.8563 8.56405 23.0331 8.74079C23.2098 8.91752 23.4196 9.05772 23.6505 9.15336C23.8814 9.24901 24.1289 9.29824 24.3789 9.29824C24.8836 9.29824 25.3677 9.09772 25.7247 8.74079C26.0816 8.38386 26.2821 7.89975 26.2821 7.39498C26.2821 6.8902 26.0816 6.4061 25.7247 6.04917C25.3677 5.69223 24.8836 5.49171 24.3789 5.49171ZM15.9133 7.71615C14.8329 7.6993 13.76 7.89753 12.757 8.29931C11.754 8.70109 10.8409 9.29838 10.071 10.0564C9.30102 10.8145 8.68955 11.7181 8.27217 12.7147C7.8548 13.7113 7.63985 14.781 7.63985 15.8615C7.63985 16.942 7.8548 18.0117 8.27217 19.0083C8.68955 20.005 9.30102 20.9086 10.071 21.6666C10.8409 22.4247 11.754 23.022 12.757 23.4238C13.76 23.8255 14.8329 24.0238 15.9133 24.0069C18.0516 23.9735 20.091 23.1007 21.5913 21.5768C23.0917 20.0529 23.9326 18.0001 23.9326 15.8615C23.9326 13.723 23.0917 11.6702 21.5913 10.1463C20.091 8.62236 18.0516 7.74951 15.9133 7.71615ZM15.9133 10.573C17.3156 10.573 18.6605 11.1301 19.6521 12.1217C20.6437 13.1133 21.2008 14.4582 21.2008 15.8605C21.2008 17.2629 20.6437 18.6078 19.6521 19.5994C18.6605 20.591 17.3156 21.148 15.9133 21.148C14.511 21.148 13.1661 20.591 12.1745 19.5994C11.1829 18.6078 10.6258 17.2629 10.6258 15.8605C10.6258 14.4582 11.1829 13.1133 12.1745 12.1217C13.1661 11.1301 14.511 10.573 15.9133 10.573Z" fill="white"/>
</g>
</g>
<defs>
<filter id="filter0_d_0_3227" x="-3.94922" y="0" width="39.7212" height="39.7212" filterUnits="userSpaceOnUse" color-interpolation-filters="sRGB">
<feFlood flood-opacity="0" result="BackgroundImageFix"/>
<feColorMatrix in="SourceAlpha" type="matrix" values="0 0 0 0 0 0 0 0 0 0 0 0 0 0 0 0 0 0 127 0" result="hardAlpha"/>
<feOffset dy="4"/>
<feGaussianBlur stdDeviation="2"/>
<feComposite in2="hardAlpha" operator="out"/>
<feColorMatrix type="matrix" values="0 0 0 0 0 0 0 0 0 0 0 0 0 0 0 0 0 0 0.25 0"/>
<feBlend mode="normal" in2="BackgroundImageFix" result="effect1_dropShadow_0_3227"/>
<feBlend mode="normal" in="SourceGraphic" in2="effect1_dropShadow_0_3227" result="shape"/>
</filter>
<clipPath id="clip0_0_3227">
<rect width="31.7211" height="31.7211" fill="white" transform="translate(0.0507812)"/>
</clipPath>
</defs>
</svg>
