<svg width="29" height="29" viewBox="0 0 29 29" fill="none" xmlns="http://www.w3.org/2000/svg">
<rect width="29" height="29" fill="#F5F5F5"/>
<g id="Desktop - 1" clip-path="url(#clip0_0_1)">
<rect width="1730" height="1117" transform="translate(-46 -644)" fill="white"/>
<rect id="Rectangle 1" x="-46" y="-644" width="334" height="1117" fill="#32409A"/>
<g id="Group 34841">
<g id="mdi:cash">
<path id="Vector" d="M3.625 7.25H25.375V21.75H3.625V7.25ZM14.5 10.875C15.4614 10.875 16.3834 11.2569 17.0633 11.9367C17.7431 12.6166 18.125 13.5386 18.125 14.5C18.125 15.4614 17.7431 16.3834 17.0633 17.0633C16.3834 17.7431 15.4614 18.125 14.5 18.125C13.5386 18.125 12.6166 17.7431 11.9367 17.0633C11.2569 16.3834 10.875 15.4614 10.875 14.5C10.875 13.5386 11.2569 12.6166 11.9367 11.9367C12.6166 11.2569 13.5386 10.875 14.5 10.875ZM8.45833 9.66667C8.45833 10.3076 8.20372 10.9223 7.75051 11.3755C7.2973 11.8287 6.68261 12.0833 6.04167 12.0833V16.9167C6.68261 16.9167 7.2973 17.1713 7.75051 17.6245C8.20372 18.0777 8.45833 18.6924 8.45833 19.3333H20.5417C20.5417 18.6924 20.7963 18.0777 21.2495 17.6245C21.7027 17.1713 22.3174 16.9167 22.9583 16.9167V12.0833C22.3174 12.0833 21.7027 11.8287 21.2495 11.3755C20.7963 10.9223 20.5417 10.3076 20.5417 9.66667H8.45833Z" fill="white"/>
</g>
</g>
</g>
<defs>
<clipPath id="clip0_0_1">
<rect width="1730" height="1117" fill="white" transform="translate(-46 -644)"/>
</clipPath>
</defs>
</svg>
