<svg width="32" height="32" viewBox="0 0 32 32" fill="none" xmlns="http://www.w3.org/2000/svg">
<g id="fluent:broad-activity-feed-16-filled">
<path id="Vector" d="M5 4C4.20435 4 3.44129 4.31607 2.87868 4.87868C2.31607 5.44129 2 6.20435 2 7V13C2 13.7956 2.31607 14.5587 2.87868 15.1213C3.44129 15.6839 4.20435 16 5 16H27C27.7956 16 28.5587 15.6839 29.1213 15.1213C29.6839 14.5587 30 13.7956 30 13V7C30 6.20435 29.6839 5.44129 29.1213 4.87868C28.5587 4.31607 27.7956 4 27 4H5ZM5 20C4.20435 20 3.44129 20.3161 2.87868 20.8787C2.31607 21.4413 2 22.2044 2 23V25C2 25.7956 2.31607 26.5587 2.87868 27.1213C3.44129 27.6839 4.20435 28 5 28H11C11.7956 28 12.5587 27.6839 13.1213 27.1213C13.6839 26.5587 14 25.7956 14 25V23C14 22.2044 13.6839 21.4413 13.1213 20.8787C12.5587 20.3161 11.7956 20 11 20H5ZM21 20C20.2044 20 19.4413 20.3161 18.8787 20.8787C18.3161 21.4413 18 22.2044 18 23V25C18 25.7956 18.3161 26.5587 18.8787 27.1213C19.4413 27.6839 20.2044 28 21 28H27C27.7956 28 28.5587 27.6839 29.1213 27.1213C29.6839 26.5587 30 25.7956 30 25V23C30 22.2044 29.6839 21.4413 29.1213 20.8787C28.5587 20.3161 27.7956 20 27 20H21Z" fill="#ECB000"/>
</g>
</svg>
