<svg width="29" height="29" viewBox="0 0 29 29" fill="none" xmlns="http://www.w3.org/2000/svg">
<path d="M24.166 2.41699H4.83268C3.62435 2.41699 2.41602 3.50449 2.41602 4.83366V8.47074C2.41602 9.34074 2.9356 10.0899 3.62435 10.5128V24.167C3.62435 25.4962 4.95352 26.5837 6.04102 26.5837H22.9577C24.0452 26.5837 25.3743 25.4962 25.3743 24.167V10.5128C26.0631 10.0899 26.5827 9.34074 26.5827 8.47074V4.83366C26.5827 3.50449 25.3743 2.41699 24.166 2.41699ZM16.916 16.917H12.0827C11.4181 16.917 10.8743 16.3732 10.8743 15.7087C10.8743 15.0441 11.4181 14.5003 12.0827 14.5003H16.916C17.5806 14.5003 18.1243 15.0441 18.1243 15.7087C18.1243 16.3732 17.5806 16.917 16.916 16.917ZM24.166 8.45866H4.83268V4.83366H24.166V8.45866Z" fill="white"/>
</svg>
