<svg width="30" height="30" viewBox="0 0 30 30" fill="none" xmlns="http://www.w3.org/2000/svg">
<path d="M27.5 3.75C27.5 4.4375 26.9375 5 26.25 5H3.75C3.0625 5 2.5 4.4375 2.5 3.75C2.5 3.0625 3.0625 2.5 3.75 2.5H26.25C26.9375 2.5 27.5 3.0625 27.5 3.75ZM10.625 27.5C11.6625 27.5 12.5 26.6625 12.5 25.625V9.375C12.5 8.3375 11.6625 7.5 10.625 7.5C9.5875 7.5 8.75 8.3375 8.75 9.375V25.625C8.75 26.6625 9.5875 27.5 10.625 27.5ZM19.375 20C20.4125 20 21.25 19.1625 21.25 18.125V9.375C21.25 8.3375 20.4125 7.5 19.375 7.5C18.3375 7.5 17.5 8.3375 17.5 9.375V18.125C17.5 19.1625 18.3375 20 19.375 20Z" fill="#1400FF"/>
</svg>
