<svg width="36" height="30" viewBox="0 0 36 30" fill="none" xmlns="http://www.w3.org/2000/svg">
<path d="M35.3293 3.96765C34.3455 5.42339 33.1385 6.66435 31.7084 7.69051C31.7225 7.96573 31.7295 8.27679 31.7295 8.62369C31.7295 10.5512 31.447 12.481 30.8821 14.4132C30.3171 16.3453 29.4541 18.1948 28.293 19.9615C27.132 21.7281 25.749 23.2933 24.144 24.6568C22.539 26.0204 20.6097 27.1077 18.3562 27.9186C16.1026 28.7295 13.6874 29.1349 11.1105 29.1349C7.08892 29.1349 3.38541 28.0549 0 25.8948C0.60087 25.9613 1.17715 25.9946 1.72885 25.9946C5.08859 25.9946 8.08937 24.9651 10.7312 22.9062C9.1647 22.8777 7.76178 22.398 6.52245 21.4671C5.28311 20.5363 4.43023 19.3469 3.96381 17.8988C4.42484 17.9862 4.87986 18.0299 5.32888 18.0299C5.97521 18.0299 6.61118 17.946 7.23681 17.7783C5.56507 17.4452 4.17821 16.6169 3.07625 15.2934C1.97432 13.9699 1.42336 12.4423 1.42336 10.7106V10.6214C2.44948 11.1866 3.544 11.4872 4.70692 11.5233C3.7166 10.8665 2.93142 10.0101 2.35138 8.95395C1.77131 7.89781 1.48127 6.75488 1.48127 5.52516C1.48127 4.22822 1.80797 3.02052 2.46135 1.90207C4.27935 4.12141 6.48222 5.89517 9.06998 7.22337C11.6578 8.55158 14.434 9.28923 17.3986 9.43631C17.2722 8.91209 17.2088 8.36505 17.2086 7.79517C17.2086 5.80539 17.9165 4.1064 19.3321 2.69822C20.7478 1.29003 22.4558 0.585938 24.456 0.585938C26.5501 0.585938 28.3141 1.34449 29.7478 2.8616C31.3858 2.53883 32.9196 1.95501 34.3491 1.11015C33.7984 2.83432 32.7371 4.1644 31.1655 5.10038C32.61 4.92962 33.9979 4.55204 35.3293 3.96765H35.3293Z" fill="white"/>
</svg>
