<svg width="30" height="20" viewBox="0 0 30 20" fill="none" xmlns="http://www.w3.org/2000/svg">
<path id="Vector" d="M14.8151 0C8.14844 0 2.4551 4.14667 0.148438 10C2.4551 15.8533 8.14844 20 14.8151 20C21.4818 20 27.1751 15.8533 29.4818 10C27.1751 4.14667 21.4818 0 14.8151 0ZM14.8151 16.6667C11.1351 16.6667 8.14844 13.68 8.14844 10C8.14844 6.32 11.1351 3.33333 14.8151 3.33333C18.4951 3.33333 21.4818 6.32 21.4818 10C21.4818 13.68 18.4951 16.6667 14.8151 16.6667ZM14.8151 6C12.6018 6 10.8151 7.78667 10.8151 10C10.8151 12.2133 12.6018 14 14.8151 14C17.0284 14 18.8151 12.2133 18.8151 10C18.8151 7.78667 17.0284 6 14.8151 6Z" fill="black"/>
</svg>
